<svg viewBox="0 0 1080 1080" fill="none" xmlns="http://www.w3.org/2000/svg">      <defs>  <filter id="filter" x="-20%" y="-20%" width="140%" height="140%" filterUnits="objectBoundingBox" primitiveUnits="userSpaceOnUse" color-interpolation-filters="linearRGB">    <feMorphology operator="dilate" radius="20 20" in="SourceAlpha" result="morphology"/>    <feFlood flood-color="#ffffff" flood-opacity="1" result="flood"/>    <feComposite in="flood" in2="morphology" operator="in" result="composite"/>    <feMerge result="merge">          <feMergeNode in="composite" result="mergeNode"/>      <feMergeNode in="SourceGraphic" result="mergeNode1"/>      </feMerge>  </filter></defs>      <g id="notion-avatar" filter="url(#filter)">        <g id="notion-avatar-face" fill="#ffffff">      <!--?xml version="1.0" encoding="UTF-8"?-->    <title>Face/ 2</title>    <g id="Face/-2" stroke="none" stroke-width="1" fill-rule="evenodd" stroke-linecap="round" stroke-linejoin="round">        <path d="M532,379 C664.54834,379 772,486.45166 772,619 C772,751.54834 664.54834,899 532,899 C432.699202,899 347.483933,816.242653 310.982017,718.993409 C267.268677,718.448846 232,682.843144 232,639 C232,599.134956 261.158843,566.080325 299.312086,560.00055 C325.599297,455.979213 419.809919,379 532,379 Z M295.858895,624.545187 L304.141105,655.454813" id="Path" stroke="#000000" stroke-width="24"/>    </g>    </g><g id="notion-avatar-nose">      <!--?xml version="1.0" encoding="UTF-8"?-->    <title>Nose/ 1</title>    <g id="Nose/-1" stroke="none" stroke-width="1" fill="none" fill-rule="evenodd" stroke-linecap="round" stroke-linejoin="round">        <path d="M633.532552,569.006852 C651.291821,622.395473 661.086671,652.555363 662.917104,659.486521 C664.747537,666.41768 663.749048,673.591123 659.921638,681.006852" id="Line" stroke="#000000" stroke-width="16" transform="translate(648.668966, 625.006852) rotate(-3.225647) translate(-648.668966, -625.006852) "/>    </g>    </g><g id="notion-avatar-mouth">      <!--?xml version="1.0" encoding="UTF-8"?-->    <title>Mouth/ 1</title>    <g id="Mouth/-1" stroke="none" stroke-width="1" fill="none" fill-rule="evenodd" stroke-linecap="round" stroke-linejoin="round">        <path d="M549,759 C575.12979,773.666667 603.12979,781 633,781 C662.87021,781 682.87021,773.666667 693,759" id="Path" stroke="#000000" stroke-width="16"/>    </g>    </g><g id="notion-avatar-eyes">      <!--?xml version="1.0" encoding="UTF-8"?-->    <title>Eyes/ 3</title>    <g id="Eyes/-3" stroke="none" stroke-width="1" fill="none" fill-rule="evenodd" stroke-linecap="round" stroke-linejoin="round">        <g id="Group" transform="translate(533.944954, 540.730159)" stroke="#000000" stroke-width="12">            <path d="M146.275229,-1.43884904e-13 C159.958467,9.35202544 170.38232,14.8216846 177.546789,16.4089776 C184.711258,17.9962705 196.232359,17.3885306 212.110092,14.5857578" id="Path" transform="translate(179.192661, 8.634921) scale(-1, 1) translate(-179.192661, -8.634921) "/>            <path d="M6.39488462e-14,-1.43884904e-13 C13.6832373,9.35202544 24.1070905,14.8216846 31.2715596,16.4089776 C38.4360288,17.9962705 49.9571297,17.3885306 65.8348624,14.5857578" id="Path"/>        </g>    </g>    </g><g id="notion-avatar-eyebrows">      <!--?xml version="1.0" encoding="UTF-8"?-->    <title>Eyebrows/ 4</title>    <g id="Eyebrows/-4" stroke="none" stroke-width="1" fill="none" fill-rule="evenodd" stroke-linecap="round" stroke-linejoin="round">        <g id="Group" transform="translate(525.000000, 504.000000)" stroke="#000000" stroke-width="12">            <path d="M0,12 C12.8888889,4 27.8888889,0 45,0 C62.1111111,0 77.1111111,4 90,12" id="Path"/>            <path d="M138,12 C150.888889,4 165.888889,0 183,0 C200.111111,0 215.111111,4 228,12" id="Path"/>        </g>    </g>    </g><g id="notion-avatar-glasses">      <g id="Glasses/ 13"><g id="Group"><path id="Path" d="M594.966 482.529H684.378" stroke="black" stroke-width="8" stroke-linecap="round" stroke-linejoin="round"/><path id="Path_2" d="M593 517.765C593 517.765 615.694 501 638 501C660.306 501 682.412 517.765 682.412 517.765" stroke="black" stroke-width="8" stroke-linecap="round" stroke-linejoin="round"/><path id="Path_3" d="M510.484 517.569L293.827 555.771" stroke="black" stroke-width="16" stroke-linecap="round" stroke-linejoin="round"/><g id="Rectangle"><path id="Mask" fill-rule="evenodd" clip-rule="evenodd" d="M470.242 498.62C502.983 452.135 598.089 462.262 619.362 504.282C640.636 546.302 563.647 605 516.916 605C470.186 605 437.501 545.106 470.242 498.62Z" fill="#0C0C0C"/><mask id="mask0_0_1173" style="mask-type:alpha" maskUnits="userSpaceOnUse" x="457" y="468" width="166" height="137"><path id="Mask_2" fill-rule="evenodd" clip-rule="evenodd" d="M470.242 498.62C502.983 452.135 598.089 462.262 619.362 504.282C640.636 546.302 563.647 605 516.916 605C470.186 605 437.501 545.106 470.242 498.62Z" fill="white"/></mask><g mask="url(#mask0_0_1173)"><rect id="Rectangle_2" x="549.624" y="439.067" width="210" height="28" transform="rotate(60 549.624 439.067)" fill="white"/></g></g><g id="Rectangle_3"><path id="Mask_3" fill-rule="evenodd" clip-rule="evenodd" d="M804.758 498.62C772.017 452.135 676.911 462.262 655.638 504.282C634.364 546.302 711.353 605 758.084 605C804.814 605 837.499 545.106 804.758 498.62Z" fill="#0C0C0C"/><mask id="mask1_0_1173" style="mask-type:alpha" maskUnits="userSpaceOnUse" x="652" y="468" width="166" height="137"><path id="Mask_4" fill-rule="evenodd" clip-rule="evenodd" d="M804.758 498.62C772.017 452.135 676.911 462.262 655.638 504.282C634.364 546.302 711.353 605 758.084 605C804.814 605 837.499 545.106 804.758 498.62Z" fill="white"/></mask><g mask="url(#mask1_0_1173)"><rect id="Rectangle_4" x="739.624" y="439.067" width="210" height="28" transform="rotate(60 739.624 439.067)" fill="white"/></g></g><path id="Path_4" fill-rule="evenodd" clip-rule="evenodd" d="M470.242 498.62C502.983 452.135 598.089 462.262 619.362 504.282C640.636 546.302 563.647 605 516.916 605C470.186 605 437.501 545.106 470.242 498.62Z" stroke="black" stroke-width="8" stroke-linecap="round" stroke-linejoin="round"/><path id="Path_5" fill-rule="evenodd" clip-rule="evenodd" d="M804.758 498.62C772.017 452.135 676.911 462.262 655.638 504.282C634.364 546.302 711.353 605 758.084 605C804.814 605 837.499 545.106 804.758 498.62Z" stroke="black" stroke-width="8" stroke-linecap="round" stroke-linejoin="round"/></g></g>    </g><g id="notion-avatar-hair">      <g id="Hairstyle/ 50"><path id="Path" fill-rule="evenodd" clip-rule="evenodd" d="M426.002 229C503.002 222 539.359 228.22 582.002 263C595.099 257.68 669.002 242 732.002 323C795.002 404 778.755 491.067 767.002 540C764.235 551.516 752.002 499 698.002 458C644.002 417 582.002 389 582.002 389C582.002 389 492.002 462 480.002 526C478.356 534.775 498.002 400 498.002 400C498.002 400 474.473 456.878 470.002 478C461.746 516.997 467.94 523.932 452.002 553C436.064 582.068 398.904 601.544 379.002 625L376.719 620.336L374.832 616.519C366.738 600.231 361.128 590.058 358.002 586C352.545 578.918 333.322 563.08 300.002 567C277.335 569.667 229.002 608 242.002 653C247.838 673.204 261.234 689.023 282.189 700.458C292.349 706.003 318.002 714 318.002 714C318.002 714 307.002 716 299.002 716C291.002 716 281.002 713 281.002 713C281.002 713 232.002 771 176.002 766C120.002 761 107.002 703 126.002 666C145.002 629 220.424 645.247 219.002 640C172.122 646.624 162.819 622.4 126.002 617C167.993 609.839 181.265 627.383 219.002 617C218.549 614.903 176.949 589.737 148.002 586C180.091 580.029 184.391 596.95 213.002 589C203.216 527.783 211.515 462.93 242.002 389C282.002 292 349.002 236 426.002 229Z" fill="black" stroke="black" stroke-width="12" stroke-linecap="round" stroke-linejoin="round"/></g>    </g><g id="notion-avatar-accessories">      <!--?xml version="1.0" encoding="UTF-8"?-->    <title>Accessories/ 0</title>    <g id="Accessories/-0" stroke="none" stroke-width="1" fill="none" fill-rule="evenodd"/>    </g><g id="notion-avatar-details">      <!--?xml version="1.0" encoding="UTF-8"?-->    <title>Details/ 0</title>    <g id="Details/-0" stroke="none" stroke-width="1" fill="none" fill-rule="evenodd"/>    </g><g id="notion-avatar-beard">      <!--?xml version="1.0" encoding="UTF-8"?-->    <title>Beard/ 0</title>    <g id="Beard/-0" stroke="none" stroke-width="1" fill="none" fill-rule="evenodd"/>    </g><g id="notion-avatar-halloween">    <path fill-rule="evenodd" clip-rule="evenodd" d="M474 161C474 161 476.268 128.873 474 113C471.732 97.127 461 70 461 70L511 52C511 52 522.668 68.5871 531 94C539.332 119.413 551 174 551 174L474 161Z" fill="black" stroke="black" stroke-width="12" stroke-linecap="round" stroke-linejoin="round"/><path fill-rule="evenodd" clip-rule="evenodd" d="M371 358C371 358 330.485 289.551 325.26 263.327C314.434 208.986 338.014 177.544 356 169C396 150 438 182 438 182C438 182 470.846 141 509 141C547.154 141 588 182 588 182C588 182 641.785 152.386 668 176C679.794 186.624 701.352 218.617 692.674 271.98C688.492 297.692 653 364 653 364C653 364 612 323 509 323C406 323 371 358 371 358Z" fill="white" stroke="black" stroke-width="12" stroke-linecap="round" stroke-linejoin="round"/><path d="M438 182C438 182 435 219.056 435 254.96C435 290.864 438 326 438 326" stroke="black" stroke-width="6" stroke-linecap="round" stroke-linejoin="round"/><path d="M586 182C586 182 589 219.056 589 254.96C589 290.864 586 326 586 326" stroke="black" stroke-width="6" stroke-linecap="round" stroke-linejoin="round"/><path fill-rule="evenodd" clip-rule="evenodd" d="M573.121 194L559 238L598 232.5L573.121 194Z" fill="black" stroke="black" stroke-width="12" stroke-linecap="round" stroke-linejoin="round"/><path fill-rule="evenodd" clip-rule="evenodd" d="M449.879 194L464 238L425 232.5L449.879 194Z" fill="black" stroke="black" stroke-width="12" stroke-linecap="round" stroke-linejoin="round"/><path fill-rule="evenodd" clip-rule="evenodd" d="M421 255C421 255 444.107 264.561 458.083 268.5C472.058 272.439 483.092 272.5 483.092 272.5V291.5H511.55V272.5C511.55 272.5 536.568 273.906 555.532 270.5C574.496 267.094 609 255 609 255C609 255 562.431 299 499.477 299C436.523 299 421 255 421 255Z" fill="black" stroke="black" stroke-width="12" stroke-linecap="round" stroke-linejoin="round"/>  </g>      </g>      </svg>